<mxfile host="app.diagrams.net" modified="2024-04-02T13:57:50.243Z" agent="Mozilla/5.0 (Windows NT 10.0; Win64; x64) AppleWebKit/537.36 (KHTML, like Gecko) Chrome/123.0.0.0 Safari/537.36" etag="wbu1bXRQ-o5NTviPzl7O" version="24.2.1" type="github">
  <diagram name="Page-1" id="b8E182peJ3MSCpdeyeZe">
    <mxGraphModel dx="954" dy="626" grid="1" gridSize="10" guides="1" tooltips="1" connect="1" arrows="1" fold="1" page="1" pageScale="1" pageWidth="850" pageHeight="1100" math="0" shadow="0">
      <root>
        <mxCell id="0" />
        <mxCell id="1" parent="0" />
        <mxCell id="I0zyQE7dbN1XL3Iyqfy3-1" value="" style="triangle;whiteSpace=wrap;html=1;" vertex="1" parent="1">
          <mxGeometry x="250" y="300" width="60" height="80" as="geometry" />
        </mxCell>
        <mxCell id="I0zyQE7dbN1XL3Iyqfy3-2" value="" style="ellipse;whiteSpace=wrap;html=1;aspect=fixed;" vertex="1" parent="1">
          <mxGeometry x="310" y="330" width="15" height="15" as="geometry" />
        </mxCell>
      </root>
    </mxGraphModel>
  </diagram>
</mxfile>
